# xmcd
#
# Track frame offsets:
#	150
#	19215
#	35311
#	47225
#	60221
#	79979
#	100200
#	121241
#	142255
#	157514
#	168858
#
# Disc length: 2548 seconds
#
# Revision: 0
# Processed by: cddbd v1.5.2PL0 Copyright (c) Steve Scherf et al.
# Submitted via: dBpowerAMP V4.0
#
DISCID=8209f20b
DTITLE=Minus Two - The Beat Goes Off
DYEAR=2000
DGENRE=Rock
TTITLE0=Sunset obscured
TTITLE1=Blue for you
TTITLE2=Shade
TTITLE3=Oyster girl
TTITLE4=Starting a fire
TTITLE5=Back to the zoo
TTITLE6=These eyes
TTITLE7=Evil twin
TTITLE8=It's cold outside
TTITLE9=Carnival day
TTITLE10=Inquest
EXTD=
EXTT0=
EXTT1=
EXTT2=
EXTT3=
EXTT4=
EXTT5=
EXTT6=
EXTT7=
EXTT8=
EXTT9=
EXTT10=
PLAYORDER=
